<svg xmlns="http://www.w3.org/2000/svg" width="50" height="38.02" viewBox="0 0 50 38.02">
  <g id="avatar" transform="translate(-435 -781)">
    <circle id="Ellipse_2" data-name="Ellipse 2" cx="10" cy="10" r="10" transform="translate(435 790)" fill="#448aff"/>
    <g id="home" transform="translate(445 768.325)">
      <g id="Group_4" data-name="Group 4" transform="translate(0 12.676)">
        <path id="Path_3" data-name="Path 3" d="M39.328,29.567l-3.379-3.079V16.278A1.176,1.176,0,0,0,34.773,15.1H26.639a1.176,1.176,0,0,0-1.176,1.176v.654l-4.081-3.719a2.042,2.042,0,0,0-2.763,0L.672,29.567a2.051,2.051,0,0,0,1.382,3.567H4.92V49.519A1.176,1.176,0,0,0,6.1,50.695h9.837a1.176,1.176,0,0,0,1.176-1.176V39.57h5.781v9.948a1.176,1.176,0,0,0,1.176,1.176H33.9a1.176,1.176,0,0,0,1.176-1.176V33.134h2.867a2.051,2.051,0,0,0,1.381-3.567ZM33.9,30.782a1.176,1.176,0,0,0-1.176,1.176V48.342H25.243V38.394a1.176,1.176,0,0,0-1.176-1.176H15.933a1.176,1.176,0,0,0-1.176,1.176v9.948H7.272V31.958A1.176,1.176,0,0,0,6.1,30.782H2.832L20,15.138l5.847,5.327a1.176,1.176,0,0,0,1.969-.87V17.455H33.6v9.553a1.176,1.176,0,0,0,.384.87l3.188,2.9H33.9Z" transform="translate(0 -12.676)" fill="#333"/>
      </g>
    </g>
  </g>
</svg>
