<svg xmlns="http://www.w3.org/2000/svg" width="50" height="23.493" viewBox="0 0 50 23.493">
  <g id="car" transform="translate(-435 -788)">
    <circle id="Ellipse_2" data-name="Ellipse 2" cx="10" cy="10" r="10" transform="translate(435 790)" fill="#448aff"/>
    <g id="_02-car" data-name="02-car" transform="translate(441 624)">
      <g id="linear_color" data-name="linear color" transform="translate(4 164)">
        <path id="Path_4" data-name="Path 4" d="M42.172,173.766l-7.421-3.244-4.441-5.465A2.843,2.843,0,0,0,28.094,164H10.332a3.473,3.473,0,0,0-3.123,1.93l-2.84,5.679A3.514,3.514,0,0,0,4,173.17v7.655a2.86,2.86,0,0,0,2.857,2.857H7.905a4.762,4.762,0,0,0,9.332,0H32.032a4.762,4.762,0,0,0,9.334-.01A2.86,2.86,0,0,0,44,180.825v-4.394A2.87,2.87,0,0,0,42.172,173.766Zm-13.34-7.509,3.325,4.092H24.952V165.9h3.141a.947.947,0,0,1,.739.352Zm-9.594-.352v4.444H11.149l2.136-4.444Zm-10.326.878a1.579,1.579,0,0,1,1.42-.878h.84l-2.136,4.444H7.128Zm3.659,18.8a2.857,2.857,0,1,1,2.857-2.857A2.857,2.857,0,0,1,12.571,185.587Zm24.127,0a2.857,2.857,0,1,1,2.857-2.857,2.857,2.857,0,0,1-2.857,2.857Zm5.4-4.762a.953.953,0,0,1-.736.927,4.762,4.762,0,0,0-9.327.026H17.238a4.762,4.762,0,0,0-9.332,0H6.857a.953.953,0,0,1-.952-.952V173.17a1.6,1.6,0,0,1,.168-.71l.1-.207H20.19a.952.952,0,0,0,.952-.952v-5.4h1.9v5.4a.952.952,0,0,0,.952.952h9.96l7.471,3.266.047.019a.957.957,0,0,1,.618.892Z" transform="translate(-4 -164)" fill="#333"/>
        <circle id="Ellipse_3" data-name="Ellipse 3" cx="0.952" cy="0.952" r="0.952" transform="translate(7.619 17.778)" fill="#333"/>
        <circle id="Ellipse_4" data-name="Ellipse 4" cx="0.952" cy="0.952" r="0.952" transform="translate(31.746 17.778)" fill="#333"/>
        <path id="Path_5" data-name="Path 5" d="M247.143,292h-1.19a.952.952,0,1,0,0,1.9h1.19a.952.952,0,1,0,0-1.9Z" transform="translate(-225.873 -281.841)" fill="#333"/>
        <path id="Path_6" data-name="Path 6" d="M94.857,292h-1.9a.952.952,0,1,0,0,1.9h1.9a.952.952,0,1,0,0-1.9Z" transform="translate(-85.016 -281.841)" fill="#333"/>
      </g>
    </g>
  </g>
</svg>
