<svg xmlns="http://www.w3.org/2000/svg" width="46.25" height="40.5" viewBox="0 0 46.25 40.5">
  <g id="phone" transform="translate(-435 -779.586)">
    <circle id="Ellipse_2" data-name="Ellipse 2" cx="10" cy="10" r="10" transform="translate(435 790)" fill="#448aff"/>
    <g id="commercial" transform="translate(329 763.836)">
      <path id="Path_16" data-name="Path 16" d="M225.276,304v2.613a8.561,8.561,0,0,1-2.114,5.621l1.036.865a9.88,9.88,0,0,0,2.44-6.486V304Z" transform="translate(-94.382 -264)" fill="#333" stroke="#333" stroke-width="0.5"/>
      <path id="Path_17" data-name="Path 17" d="M283.673,328.613V328h-1.362v.613a13.7,13.7,0,0,1-2.762,8.272l1.1.789A15,15,0,0,0,283.673,328.613Z" transform="translate(-145.971 -286)" fill="#333" stroke="#333" stroke-width="0.5"/>
      <path id="Path_18" data-name="Path 18" d="M224.082,240a6.237,6.237,0,0,0-2.969.75l.661,1.166a4.856,4.856,0,0,1,4.728.064,4.65,4.65,0,0,1,2.346,4.02h1.362A6.072,6.072,0,0,0,224.082,240Z" transform="translate(-92.508 -205.333)" fill="#333" stroke="#333" stroke-width="0.5"/>
      <path id="Path_19" data-name="Path 19" d="M177.9,268.343v1.946a3.268,3.268,0,0,1-.567,1.843l1.134.738a4.578,4.578,0,0,0,.795-2.581v-1.946a4.606,4.606,0,0,1,1.191-3.087l-1.021-.882A5.922,5.922,0,0,0,177.9,268.343Z" transform="translate(-52.458 -227.676)" fill="#333" stroke="#333" stroke-width="0.5"/>
      <path id="Path_20" data-name="Path 20" d="M194.4,339.639l.953.952a7.205,7.205,0,0,0,2.247-5.237h-1.362A5.894,5.894,0,0,1,194.4,339.639Z" transform="translate(-68.068 -292.741)" fill="#333" stroke="#333" stroke-width="0.5"/>
      <path id="Path_21" data-name="Path 21" d="M216,275.946h1.362v-.613a2.043,2.043,0,0,1,4.085,0v1.946a11.131,11.131,0,0,1-.452,3.149l1.308.37a12.438,12.438,0,0,0,.506-3.518v-1.946a3.405,3.405,0,0,0-6.809,0Z" transform="translate(-87.83 -234.667)" fill="#333" stroke="#333" stroke-width="0.5"/>
      <path id="Path_22" data-name="Path 22" d="M259.612,388.761l-1.254-.519a11.255,11.255,0,0,1-1.021,1.859l1.134.738A12.577,12.577,0,0,0,259.612,388.761Z" transform="translate(-125.648 -341.222)" fill="#333" stroke="#333" stroke-width="0.5"/>
      <path id="Path_23" data-name="Path 23" d="M141.787,53.333a1.349,1.349,0,0,1-1.362,1.333h-17.7a1.349,1.349,0,0,1-1.362-1.333V18.667a1.349,1.349,0,0,1,1.362-1.333h17.7a1.349,1.349,0,0,1,1.362,1.333V22h1.362V18.667A2.7,2.7,0,0,0,140.426,16h-17.7A2.7,2.7,0,0,0,120,18.667V53.333A2.7,2.7,0,0,0,122.723,56h17.7a2.7,2.7,0,0,0,2.723-2.667V30h-1.362Z" fill="#333" stroke="#333" stroke-width="0.5"/>
      <path id="Path_24" data-name="Path 24" d="M215.147,74.661H202.162a5.5,5.5,0,0,0-6.127-2.485,5.305,5.305,0,0,0,0,10.3,5.5,5.5,0,0,0,6.127-2.485h12.985a2.667,2.667,0,1,0,0-5.333Zm-17.7,6.667a4.07,4.07,0,0,1-3.967-3.035,3.971,3.971,0,0,1,2.054-4.5,4.147,4.147,0,0,1,4.955.869h-3.043a2.667,2.667,0,1,0,0,5.333h3.043A4.147,4.147,0,0,1,197.445,81.328Zm17.7-2.667h-17.7a1.334,1.334,0,1,1,0-2.667h17.7a1.334,1.334,0,1,1,0,2.667Z" transform="translate(-65.871 -51.328)" fill="#333" stroke="#333" stroke-width="0.5"/>
      <path id="Path_25" data-name="Path 25" d="M344,448h1.362v1.333H344Z" transform="translate(-204.936 -396)" fill="#333" stroke="#333" stroke-width="0.5"/>
      <path id="Path_26" data-name="Path 26" d="M152,448h1.362v1.333H152Z" transform="translate(-29.277 -396)" fill="#333" stroke="#333" stroke-width="0.5"/>
      <path id="Path_27" data-name="Path 27" d="M344,48h1.362v1.333H344Z" transform="translate(-204.936 -29.333)" fill="#333" stroke="#333" stroke-width="0.5"/>
      <path id="Path_28" data-name="Path 28" d="M152,48h1.362v1.333H152Z" transform="translate(-29.277 -29.333)" fill="#333" stroke="#333" stroke-width="0.5"/>
    </g>
  </g>
</svg>
