<svg xmlns="http://www.w3.org/2000/svg" width="22.045" height="22.045" viewBox="0 0 22.045 22.045">
  <g id="phone-call" transform="matrix(0.966, 0.259, -0.259, 0.966, 2.206, -0.657)">
    <g id="Group_1" data-name="Group 1" transform="translate(2.539 0)">
      <path id="Path_1" data-name="Path 1" d="M18.067,13.21,15.55,10.7a1.676,1.676,0,0,0-2.787.628A1.714,1.714,0,0,1,10.785,12.4,7.754,7.754,0,0,1,6.11,7.738,1.625,1.625,0,0,1,7.189,5.764a1.669,1.669,0,0,0,.629-2.781L5.3.471a1.8,1.8,0,0,0-2.427,0l-1.708,1.7c-1.708,1.794.18,6.549,4.405,10.766s8.99,6.19,10.788,4.4l1.708-1.7A1.789,1.789,0,0,0,18.067,13.21Z" transform="translate(-0.539 0)" fill="#fcfcfc"/>
    </g>
  </g>
</svg>
