<svg xmlns="http://www.w3.org/2000/svg" width="50.1" height="40.2" viewBox="0 0 50.1 40.2">
  <g id="ring" transform="translate(-435 -779.9)">
    <circle id="Ellipse_2" data-name="Ellipse 2" cx="10" cy="10" r="10" transform="translate(435 790)" fill="#448aff"/>
    <g id="emergency" transform="translate(444.993 780)">
      <g id="Group_29" data-name="Group 29" transform="translate(7.231 11.406)">
        <g id="Group_28" data-name="Group 28">
          <path id="Path_29" data-name="Path 29" d="M117.984,173.557l-1.959-5.781a.781.781,0,0,0-.74-.531h-.114V155.917a9.922,9.922,0,0,0-19.844,0v11.329h-.114a.781.781,0,0,0-.74.531l-1.959,5.781a.781.781,0,0,0,.74,1.032h23.989a.781.781,0,0,0,.74-1.032ZM96.89,155.917a8.359,8.359,0,0,1,16.719,0v11.329H96.89Zm-2.546,17.11,1.429-4.219h18.951l1.43,4.219H94.345Z" transform="translate(-92.474 -145.995)" fill="#333" stroke="#333" stroke-width="0.2"/>
        </g>
      </g>
      <g id="Group_31" data-name="Group 31" transform="translate(19.226)">
        <g id="Group_30" data-name="Group 30">
          <path id="Path_30" data-name="Path 30" d="M246.781,0A.781.781,0,0,0,246,.781V5.469a.781.781,0,0,0,1.563,0V.781A.781.781,0,0,0,246.781,0Z" transform="translate(-246)" fill="#333" stroke="#333" stroke-width="0.2"/>
        </g>
      </g>
      <g id="Group_33" data-name="Group 33" transform="translate(19.226 7.732)">
        <g id="Group_32" data-name="Group 32">
          <path id="Path_31" data-name="Path 31" d="M247.334,99.192a.782.782,0,1,0,.229.553A.786.786,0,0,0,247.334,99.192Z" transform="translate(-246 -98.964)" fill="#333" stroke="#333" stroke-width="0.2"/>
        </g>
      </g>
      <g id="Group_35" data-name="Group 35" transform="translate(3.099 20.911)">
        <g id="Group_34" data-name="Group 34">
          <path id="Path_32" data-name="Path 32" d="M43.956,267.66H40.368a.781.781,0,1,0,0,1.563h3.587a.781.781,0,1,0,0-1.562Z" transform="translate(-39.587 -267.66)" fill="#333" stroke="#333" stroke-width="0.2"/>
        </g>
      </g>
      <g id="Group_37" data-name="Group 37" transform="translate(0.007 20.911)">
        <g id="Group_36" data-name="Group 36">
          <path id="Path_33" data-name="Path 33" d="M1.341,267.889a.781.781,0,0,0-1.1,0,.781.781,0,0,0,.552,1.334.781.781,0,0,0,.552-1.334Z" transform="translate(-0.007 -267.66)" fill="#333" stroke="#333" stroke-width="0.2"/>
        </g>
      </g>
      <g id="Group_39" data-name="Group 39" transform="translate(12.185 3.914)">
        <g id="Group_38" data-name="Group 38">
          <path id="Path_34" data-name="Path 34" d="M158.44,53.132l-1.059-2.556a.781.781,0,0,0-1.444.6L157,53.73a.781.781,0,0,0,1.444-.6Z" transform="translate(-155.877 -50.093)" fill="#333" stroke="#333" stroke-width="0.2"/>
        </g>
      </g>
      <g id="Group_45" data-name="Group 45" transform="translate(38.444 20.911)">
        <g id="Group_44" data-name="Group 44">
          <path id="Path_37" data-name="Path 37" d="M493.327,267.889a.781.781,0,1,0,.229.552A.787.787,0,0,0,493.327,267.889Z" transform="translate(-491.993 -267.66)" fill="#333" stroke="#333" stroke-width="0.2"/>
        </g>
      </g>
      <g id="Group_47" data-name="Group 47" transform="translate(30.279 6.014)">
        <g id="Group_46" data-name="Group 46">
          <path id="Path_38" data-name="Path 38" d="M392.651,77.21a.782.782,0,0,0-1.1,0L387.7,81.054a.781.781,0,0,0,1.1,1.1l3.844-3.844A.782.782,0,0,0,392.651,77.21Z" transform="translate(-387.473 -76.981)" fill="#333" stroke="#333" stroke-width="0.2"/>
        </g>
      </g>
      <g id="Group_49" data-name="Group 49" transform="translate(4.329 6.014)">
        <g id="Group_48" data-name="Group 48">
          <path id="Path_39" data-name="Path 39" d="M60.5,81.056l-3.844-3.844a.781.781,0,0,0-1.1,1.1l3.844,3.844a.781.781,0,1,0,1.1-1.105Z" transform="translate(-55.321 -76.983)" fill="#333" stroke="#333" stroke-width="0.2"/>
        </g>
      </g>
      <g id="Group_51" data-name="Group 51" transform="translate(25.207 3.914)">
        <g id="Group_50" data-name="Group 50">
          <path id="Path_40" data-name="Path 40" d="M324.7,50.153a.782.782,0,0,0-1.021.423l-1.059,2.556a.781.781,0,1,0,1.444.6l1.059-2.556A.781.781,0,0,0,324.7,50.153Z" transform="translate(-322.561 -50.094)" fill="#333" stroke="#333" stroke-width="0.2"/>
        </g>
      </g>
      <g id="Group_53" data-name="Group 53" transform="translate(33.667 13.87)">
        <g id="Group_52" data-name="Group 52">
          <path id="Path_41" data-name="Path 41" d="M434.9,178.021a.782.782,0,0,0-1.021-.423l-2.556,1.059a.781.781,0,1,0,.6,1.444l2.556-1.059A.781.781,0,0,0,434.9,178.021Z" transform="translate(-430.842 -177.539)" fill="#333" stroke="#333" stroke-width="0.2"/>
        </g>
      </g>
      <g id="Group_55" data-name="Group 55" transform="translate(17.663 16.329)">
        <g id="Group_54" data-name="Group 54">
          <path id="Path_42" data-name="Path 42" d="M228.345,209.008A2.346,2.346,0,0,0,226,211.352v3.75a2.344,2.344,0,0,0,4.687,0v-3.75A2.346,2.346,0,0,0,228.345,209.008Zm.781,6.094a.781.781,0,0,1-1.563,0v-3.75a.781.781,0,0,1,1.563,0Z" transform="translate(-226.001 -209.008)" fill="#333" stroke="#333" stroke-width="0.2"/>
        </g>
      </g>
      <g id="Group_57" data-name="Group 57" transform="translate(17.663 26.329)">
        <g id="Group_56" data-name="Group 56">
          <path id="Path_43" data-name="Path 43" d="M228.345,337.005a2.344,2.344,0,1,0,2.344,2.344A2.346,2.346,0,0,0,228.345,337.005Zm0,3.125a.781.781,0,1,1,.781-.781A.782.782,0,0,1,228.345,340.13Z" transform="translate(-226.001 -337.005)" fill="#333" stroke="#333" stroke-width="0.2"/>
        </g>
      </g>
    </g>
  </g>
</svg>
