<svg xmlns="http://www.w3.org/2000/svg" width="50" height="40" viewBox="0 0 50 40">
  <g id="tv" transform="translate(-435 -780)">
    <circle id="Ellipse_2" data-name="Ellipse 2" cx="10" cy="10" r="10" transform="translate(435 790)" fill="#448aff"/>
    <g id="safe" transform="translate(444.968 780)">
      <path id="Path_47" data-name="Path 47" d="M80.7,60.744V33.7a.742.742,0,0,0-.742-.742H52.908a.742.742,0,0,0-.742.742V60.744a.742.742,0,0,0,.742.742H79.956A.742.742,0,0,0,80.7,60.744ZM79.215,60H53.649V34.442H79.215Z" transform="translate(-45.108 -28.518)" fill="#333"/>
      <path id="Path_48" data-name="Path 48" d="M28.7,39.258A.741.741,0,0,0,29.44,40h5.41a.742.742,0,0,0,.742-.741v-1.85h3.7a.742.742,0,0,0,.741-.742V.741A.741.741,0,0,0,39.291,0H3.357a.741.741,0,0,0-.742.741V9.85H.774a.741.741,0,0,0-.742.741V16a.741.741,0,0,0,.742.741H2.615v3.926H.774a.741.741,0,0,0-.742.741v5.409a.742.742,0,0,0,.742.742H2.615v9.108a.742.742,0,0,0,.742.742h3.7v1.85A.741.741,0,0,0,7.8,40h5.41a.741.741,0,0,0,.742-.741v-1.85H28.7Zm-27.183-24V11.333h1.1v3.925Zm0,10.817V22.15h1.1v3.926ZM12.468,38.517H8.542V37.409h3.926v1.108Zm.742-2.591H4.1V1.483h34.45V35.926H13.21Zm20.9,1.483v1.108H30.181V37.409Z" fill="#333"/>
      <path id="Path_49" data-name="Path 49" d="M102.988,94.1c0,.007.009.012.013.019a7.55,7.55,0,0,0,13.055,0l.014-.021.011-.021a7.54,7.54,0,0,0,0-7.516l-.007-.013-.013-.02a7.551,7.551,0,0,0-13.067.016l0,0v0a7.538,7.538,0,0,0-.009,7.53Zm6.541-6.439a2.661,2.661,0,0,1,2.311,3.986l-.006.009-.005.01a2.664,2.664,0,1,1-2.3-4Zm6.07,2.663a6.034,6.034,0,0,1-.482,2.37l-1.683-.972a4.14,4.14,0,0,0,0-2.8l1.683-.971A6.034,6.034,0,0,1,115.6,90.325Zm-9.974,1.4-1.684.972a6.067,6.067,0,0,1,0-4.739l1.684.972a4.138,4.138,0,0,0,0,2.795Zm-.94,2.255,1.684-.972a4.149,4.149,0,0,0,2.419,1.4v1.945A6.074,6.074,0,0,1,104.684,93.978Zm5.586,2.371V94.4a4.148,4.148,0,0,0,2.419-1.4l1.684.972A6.07,6.07,0,0,1,110.27,96.349Zm4.1-9.675-1.684.972a4.147,4.147,0,0,0-2.419-1.4V84.3A6.072,6.072,0,0,1,114.373,86.673ZM108.787,84.3v1.945a4.148,4.148,0,0,0-2.419,1.4l-1.684-.972A6.074,6.074,0,0,1,108.787,84.3Z" transform="translate(-88.204 -71.621)" fill="#333"/>
    </g>
  </g>
</svg>
