<svg xmlns="http://www.w3.org/2000/svg" width="175.712" height="40.738" viewBox="0 0 175.712 40.738">
  <g id="white_logo" data-name="white logo" transform="translate(-190 -278.582)">
    <g id="Group_22" data-name="Group 22">
      <path id="Path_10" data-name="Path 10" d="M195.3,294.1H192a2.006,2.006,0,0,0-2,2h0a2.006,2.006,0,0,0,2,2h3.3a2.006,2.006,0,0,0,2-2h0A2.006,2.006,0,0,0,195.3,294.1Z" fill="#fff"/>
      <path id="Path_11" data-name="Path 11" d="M193.6,301.9h0a2.006,2.006,0,0,0-2,2h0a2.006,2.006,0,0,0,2,2h0a2.006,2.006,0,0,0,2-2h0A2.074,2.074,0,0,0,193.6,301.9Z" fill="#fff"/>
      <path id="Path_12" data-name="Path 12" d="M198.2,286.3h0a2.006,2.006,0,0,0-2,2h0a2.006,2.006,0,0,0,2,2h0a2.006,2.006,0,0,0,2-2h0A2.006,2.006,0,0,0,198.2,286.3Z" fill="#fff"/>
      <path id="Path_13" data-name="Path 13" d="M198.5,309.8h-2.7a2.006,2.006,0,0,0-2,2h0a2.006,2.006,0,0,0,2,2h2.7a2.006,2.006,0,0,0,2-2h0A2.006,2.006,0,0,0,198.5,309.8Z" fill="#fff"/>
      <path id="Path_14" data-name="Path 14" d="M256.4,294.7H232.3c-.2,0-.3-.1-.4-.3a13.608,13.608,0,0,0-12.5-8H204.1a1.923,1.923,0,0,0-2,1.9,2.006,2.006,0,0,0,2,2h3a1.927,1.927,0,0,1,1.9,1.5,1.946,1.946,0,0,1-1.9,2.4h-5.9a1.923,1.923,0,0,0-2,1.9,2.006,2.006,0,0,0,2,2H206a1.923,1.923,0,0,1,2,1.9,2.006,2.006,0,0,1-2,2h-6.6a1.923,1.923,0,0,0-2,1.9,2.006,2.006,0,0,0,2,2h7.9a2.175,2.175,0,0,1,2,1.4,2.064,2.064,0,0,1-1.9,2.6h-2.9a1.923,1.923,0,0,0-2,1.9,2.006,2.006,0,0,0,2,2h15.1a13.775,13.775,0,0,0,12.4-8,12.663,12.663,0,0,0,1.2-6,.43.43,0,0,1,.4-.4h9.7a2.051,2.051,0,0,1,2.1,2.1v2.6a2.351,2.351,0,1,0,4.7.1v-2.6a2.2,2.2,0,0,1,2.1-2.2,2.051,2.051,0,0,1,2.1,2.1v2.6a2.351,2.351,0,1,0,4.7.1V297A2.76,2.76,0,0,0,256.4,294.7Zm-37.1,9.7a4.4,4.4,0,1,1,4.4-4.4A4.375,4.375,0,0,1,219.3,304.4Z" fill="#fff"/>
    </g>
    <g id="Group_23" data-name="Group 23">
      <text id="Fast_local" data-name="Fast local" transform="translate(268.942 295.782)" fill="#fff" stroke="#fff" stroke-miterlimit="10" stroke-width="0.2" font-size="16" font-family="SegoeUI, Segoe UI"><tspan x="0" y="0">Fast local</tspan></text>
      <text id="LOCKSMITH" transform="translate(268.712 313.32)" fill="#fff" stroke="#fff" stroke-miterlimit="10" stroke-width="1" font-size="18" font-family="SegoeUI, Segoe UI"><tspan x="0" y="0">LOCKSMITH</tspan></text>
    </g>
  </g>
</svg>
